<svg version="1.1" xmlns="http://www.w3.org/2000/svg" viewBox="0 0 512 512"><path fill="white" d="M284.1 298.4c-6.1 6.1-0.9 17.3-0.9 17.3l45.8 76.4c0 0 7.5 10.1 14 10.1 6.5 0 13-5.4 13-5.4l36.2-51.7c0 0 3.6-6.5 3.7-12.2 0.1-8.1-12.1-10.4-12.1-10.4l-85.7-27.5C298.1 294.9 289.7 292.7 284.1 298.4L284.1 298.4zM279.7 259.8c4.4 7.4 16.5 5.3 16.5 5.3l85.5-25c0 0 11.6-4.7 13.3-11.1 1.6-6.3-1.9-13.9-1.9-13.9L352.2 167c0 0-3.5-6.1-10.9-6.7 -8.1-0.7-13.1 9.1-13.1 9.1l-48.3 76C280 245.4 275.7 253 279.7 259.8L279.7 259.8zM239.4 230.2c10.1-2.5 11.7-17.1 11.7-17.1l-0.7-121.7c0 0-1.5-15-8.3-19.1 -10.6-6.4-13.7-3.1-16.7-2.6l-71 26.4c0 0-6.9 2.3-10.6 8.1 -5.2 8.2 5.3 20.2 5.3 20.2L222.8 225C222.8 225 230.1 232.5 239.4 230.2L239.4 230.2zM221.8 279.5c0.3-9.4-11.3-15-11.3-15l-76.3-38.5c0 0-11.3-4.7-16.8-1.4 -4.2 2.5-7.9 7-8.3 11l-5 61.2c0 0-0.7 10.6 2 15.4 3.9 6.8 16.7 2.1 16.7 2.1l89.1-19.7C215.4 292.1 221.5 291.9 221.8 279.5L221.8 279.5zM244 312.5c-7.6-3.9-16.8 4.2-16.8 4.2l-59.6 65.6c0 0-7.4 10-5.5 16.2 1.8 5.8 4.7 8.6 8.9 10.7l59.9 18.9c0 0 7.3 1.5 12.8-0.1 7.8-2.3 6.4-14.5 6.4-14.5l1.4-88.9C251.3 324.6 251 316.1 244 312.5L244 312.5zM244 312.5"/></svg>